<?xml version="1.0" encoding="iso-8859-1"?>
<!-- Generator: Adobe Illustrator 19.0.0, SVG Export Plug-In . SVG Version: 6.00 Build 0)  -->
<svg version="1.1" id="Capa_1" xmlns="http://www.w3.org/2000/svg" xmlns:xlink="http://www.w3.org/1999/xlink" x="0px" y="0px"
	 viewBox="0 0 512 512" style="enable-background:new 0 0 512 512;" xml:space="preserve">
<circle style="fill:#002620;" cx="256" cy="256" r="256"/>
<g>
	<path style="fill:#00E5BB;" d="M286.784,389.319l-92.63-302.141c-5.444-17.335-27.731-25.757-50.521-25.757
		c-22.779,0-45.066,8.422-50.521,25.757l-77.98,255.727c10.888,30.176,27.293,57.73,47.981,81.418
		c5.716-2.152,9.916-6.05,11.671-12.225l16.844-61.91h104.51l16.844,61.91c2.967,10.407,12.873,14.367,25.255,14.367
		c21.305,0,49.538-13.375,49.538-31.702C287.777,393.279,287.275,391.294,286.784,389.319z M107.481,290.754l36.153-132.743
		l36.164,132.743H107.481z"/>
	<path style="fill:#00E5BB;" d="M506.19,201.541c-6.541-6.416-18.129-10.846-32.329-10.846c-20.804,0-38.64,10.898-38.64,23.28
		v113.433c0,18.819-15.851,37.146-35.662,37.146s-36.153-18.327-36.153-37.146V214.477c0-11.891-17.836-23.782-38.139-23.782
		c-21.295,0-38.63,11.891-38.63,23.782v112.932c0,54.972,51.012,104.009,112.921,104.009c19.895,0,38.703-5.089,55.034-13.876
		C490.486,373.478,512,317.253,512,256.001v-42.026C512,209.482,509.91,205.188,506.19,201.541z"/>
</g>
<g>
</g>
<g>
</g>
<g>
</g>
<g>
</g>
<g>
</g>
<g>
</g>
<g>
</g>
<g>
</g>
<g>
</g>
<g>
</g>
<g>
</g>
<g>
</g>
<g>
</g>
<g>
</g>
<g>
</g>
</svg>
