<svg id="Layer_1" data-name="Layer 1" xmlns="http://www.w3.org/2000/svg" viewBox="0 0 473.99 473.99"><defs><style>.cls-1{fill:#214674;}.cls-2{fill:#f6f6f6;}</style></defs><title>css</title><circle class="cls-1" cx="237" cy="237" r="237"/><path id="path21" class="cls-2" d="M309.56,253.15c19,6.64,28.91,18,28.91,34.6,0,10.9-3.79,19-11.85,25.6-8.06,6.16-19,10-33.65,10-13.75,0-26.54-3.79-38.39-10a5,5,0,0,1-2.37-4.27,42.32,42.32,0,0,1,2.84-9.48c1.42-2.84,2.37-5.21,3.79-7.58q2.13-2.84,5.69-1.42c10.43,4.74,19,7.58,27,7.58,3.79,0,7.11-.47,9.48-1.9a6,6,0,0,0,3.32-5.21c0-4.27-3.32-7.58-10-9.48l-11.85-4.27c-18-6.64-27-17.06-27-32.23q0-16.35,11.38-25.6c7.58-6.16,17.54-11.85,30.34-11.85a87.58,87.58,0,0,1,20.86,2.84c6.64,1.42,11.85,4.74,16.59,7.58a5,5,0,0,1,2.37,4.27c0,3.32-.95,6.64-2.37,10.43-1.42,3.32-2.84,6.16-4.74,8.06-1.42,1.42-3.32,1.9-4.74.95-10.9-4.74-19.91-7.11-27.49-7.11-2.84,0-5.21.47-6.64,1.9a6.58,6.58,0,0,0-2.37,4.74c0,3.32,2.84,6.16,8.06,8.06l12.8,3.79Z" transform="translate(-19 -19)"/><path id="path27" class="cls-2" d="M397.72,270.22c-6.16,5.21-9.48,12.8-9.48,23.23v37.45c0,12.32-3.79,21.8-12.32,28.44s-18.49,9.48-29.86,10h-6.64V353.64a3.6,3.6,0,0,1,2.84-3.79,18.21,18.21,0,0,0,8.06-5.21c4.27-3.79,7.58-10.43,7.58-19V295.34c0-10.43.95-18.49,4.74-24.17,2.84-4.27,7.58-8.06,14.22-11.85,2.84-1.42,2.84-5.69,0-7.58-8.06-4.74-13.27-10.43-16.59-17.54-2.37-5.21-2.37-12.32-2.37-21.33V185.37c0-9-2.84-15.64-6.64-19a16.18,16.18,0,0,0-8.53-4.74,4.15,4.15,0,0,1-2.84-4.27v-10a4.25,4.25,0,0,1,4.27-4.27H357c7.11,0,13.27,3.79,18.49,8.06a36.59,36.59,0,0,1,12.32,18.49c1.42,4.27,1.42,8.53,1.42,12.8v31.76c0,11.38,3.32,19.91,9,25.12,2.84,2.84,6.64,5.21,12.8,7.58a4,4,0,0,1,2.84,3.79v8.06a4.55,4.55,0,0,1-2.84,4.27c-6.64,1.9-10.43,4.27-13.27,7.11Z" transform="translate(-19 -19)"/><path id="path29" class="cls-2" d="M165,143.19h-6.16c-7.11,0-13.27,3.79-18.49,8.06-5.69,4.74-10.9,10.43-12.32,18.49-.95,4.74-.47,8.53-.47,12.8v31.76c0,11.38-4.27,19.43-10,25.12-2.84,2.84-8.53,5.21-15.17,7.58a4.55,4.55,0,0,0-2.84,4.27v8.06a4.55,4.55,0,0,0,2.84,4.27c5.69,1.9,10.9,4.27,14.22,7.11,6.16,5.21,10.43,12.8,10.43,23.23v37.45c0,12.32,2.84,21.8,11.38,28.44s18.49,9.48,29.86,10h3.32a4.25,4.25,0,0,0,4.27-4.27V354.11a3.6,3.6,0,0,0-2.84-3.79,22.52,22.52,0,0,1-9-5.21c-4.27-3.79-6.64-10.43-6.64-19V295.81q0-15.64-5.69-24.17c-2.84-4.27-7.58-8.06-14.22-11.85-2.84-1.42-2.84-5.69,0-7.58,8.06-4.74,13.27-10.43,16.59-17.54,2.37-5.21,3.32-12.32,3.32-21.33V185.85c0-9,1.9-15.64,5.69-19,1.9-1.9,5.21-3.32,10-4.74h4.27a4.25,4.25,0,0,0,4.27-4.27v-10a4.25,4.25,0,0,0-4.27-4.27L165,143.19Z" transform="translate(-19 -19)"/><path id="path31" class="cls-2" d="M241.78,294.39h-5.69c-6.16,0-8.53-3.32-8.53-10V161.67c0-7.58-2.37-12.8-4.74-15.64-2.84-2.84-7.58-2.84-14.22-2.84H198.17a4.25,4.25,0,0,0-4.27,4.27V290.6c0,10.43,2.37,17.54,6.64,22.75,4.27,4.74,10.9,7.11,20.86,7.11A151.16,151.16,0,0,0,241.3,319a5.14,5.14,0,0,0,3.79-3.79v-5.69a120.66,120.66,0,0,0-3.32-15.17Z" transform="translate(-19 -19)"/></svg>