<svg id="Layer_1" data-name="Layer 1" xmlns="http://www.w3.org/2000/svg" viewBox="0 0 202.49 449.68"><defs><style>.cls-1{fill:#d34a47;}.cls-2{fill:#fff;}</style></defs><title>gulp</title><path class="cls-1" d="M311,467.28l4.31-71.89,11.91-20.34s-27.11,11.09-72.51,11.09-72.1-10.89-72.1-10.89L196,397.44l4.72,69.84c0,7.49,24.69,13.56,55.15,13.56S311,474.77,311,467.28M297.37,131.56l9.06-35.79L356.57,43,343.35,31.74,290.26,88l-10.51,42.76q-11.87-.4-23.75-.4c-55.92,0-101.25,6.37-101.25,14.23S200.08,158.79,256,158.79s101.24-6.37,101.24-14.23c0-5.79-24.58-10.77-59.88-13" transform="translate(-154.75 -31.16)"/><path class="cls-2" d="M292.1,151.61a43,43,0,0,1-7.73.46c-5.77,0-9.87,0-11.5-1.52a2.58,2.58,0,0,1-.68-1.73,2.21,2.21,0,0,1,1.65-2l.87,1.37c-.38.13-.6.29-.6.45,0,.78,5.9,1.31,10.42,1.25s10-.43,10-1.19c0-.23-.41-.45-1.13-.62l.87-1.36c1.17.36,2.19,1.07,2.19,2.28,0,2.07-2.64,2.38-4.34,2.61" transform="translate(-154.75 -31.16)"/><path class="cls-1" d="M356.47,43.1c1.26-1.46-.65-5.18-4.27-8.32s-7.58-4.5-8.85-3,.65,5.18,4.28,8.32,7.58,4.5,8.84,3M308.57,291.68c-1.19-11.44,25-28,18.29-28.53-14.48.83-21.68,17-29,33.86-2.67,6.19-11.8,32.6-17.79,29.35s7.76-25,11.62-37.87c-4.45,3.26-20.76,15.93-25,4.07-6.76,5.74-21.2,8.85-19.57-6.23-3.59,6.37-11.66,15.26-21.35,11.56-12.72-4.85,7.37-45.36,12.36-43.32s-1,11.27-2.58,14.86c-3.46,7.89-7.45,17.8-4.78,19.83,4.57,3.48,17-13.15,17.29-13.52,2.33-3.07,9-23.19,14.3-20.88s-13.33,28.86-6.35,34.13c1.41,1.06,7.17-.66,10.67-4.45,2.27-2.45,1.49-7.88,9-25.91s14.29-40.47,19.48-38.76.91,13.23-.95,17.52c-8.73,20.16-23.81,53.46-16.7,50.93s10.82-2.67,17.79-10.82,6.65-21.59,11.29-21.3,3.87,4.59,2.74,7.87c4.57-5.23,21.67-16.25,25.8-5.34,4.89,12.92-24.46,31.58-17.14,30.63,7.14-.93,18.69-8.25,23.63-14.91l13.58-122.13s-13.67,11.31-100.64,11.31-99.22-11.08-99.22-11.08L167,264.07c6.14-17.45,20.72-52.74,43.69-51.55,10.45.54,24.41,20.67,12.45,21.35-5.06.29-5.57-10-11.56-11.56-4.32-1.1-10.34,2.42-14.23,6.23-7.76,7.59-24.44,37.55-22.24,52.48,2.81,19,26.27-6.62,30.24-14.23,2.8-5.37,4.68-21.26,10.8-19.59s-.53,18.07-5,32.58c-5,16.29-7.6,33.47-13.84,31.49s3.93-23,3.56-26.68c-5.87,5.41-16.68,19.12-30.5,12.33l7.18,69.23s19.09,15.08,76.6,15.08,77.3-14.85,77.3-14.85l8.92-80.18c-7.3,7.11-30.39,19.72-31.87,5.5" transform="translate(-154.75 -31.16)"/></svg>