<svg id="Layer_1" data-name="Layer 1" xmlns="http://www.w3.org/2000/svg" xmlns:xlink="http://www.w3.org/1999/xlink" viewBox="0 0 421.48 421.48"><defs><linearGradient id="Degradado_sin_nombre_13" x1="359.75" y1="359.75" x2="61.72" y2="61.72" gradientUnits="userSpaceOnUse"><stop offset="0" stop-color="#fff"/><stop offset="0.24" stop-color="#fdfdfd"/><stop offset="0.38" stop-color="#f4f4f4"/><stop offset="0.49" stop-color="#e7e7e7"/><stop offset="0.56" stop-color="#d8d8d8"/></linearGradient></defs><title>materializecss</title><circle cx="210.74" cy="210.74" r="210.74" style="fill:url(#Degradado_sin_nombre_13)"/><path d="M378.13,257.92h51.11c-17.87,6-23.52,17.87-26.65,51.74-2.19,24.14-13.17,30.42-13.17,30.42-8.15,0-16.31-34.81-23.52-71.81C368.72,262,372.48,258.86,378.13,257.92Z" transform="translate(-45.26 -45.26)" style="fill:#eb7077"/><path d="M389.1,339.76H338c9.09,0,15.36-17.25,19.13-39.2,2.51-14.74,5-25.4,8.47-32.61C372.8,305,380.95,339.76,389.1,339.76Z" transform="translate(-45.26 -45.26)" style="fill:#eb7077"/><path d="M365.58,268c-3.76,6.9-6.27,17.87-8.47,32.61-3.76,21.95-10,39.2-19.13,39.2-9.72-2.19-17.56-39.2-27.91-95.64-.31-1.88-.63-3.45-.94-5.33,7.84-40.76,16-75.88,24.14-75.88h2.82c9.72,2.19,17.56,39.2,27.91,95.64C364.64,262,365,264.82,365.58,268Z" transform="translate(-45.26 -45.26)" style="fill:#f6a2ad"/><path d="M285,163.22h48.29c-8.15,0-16.62,35.12-24.14,75.88C301.93,200.85,293.46,163.22,285,163.22Z" transform="translate(-45.26 -45.26)" style="fill:#eb7077"/><path d="M309.14,239.11c-.63,4.08-1.57,8.15-2.19,12.54-11.6,63.34-18.5,86.55-26.65,88.43-9.09,0-17.87-41.08-25.09-81.21,0-.63-.31-1.25-.31-1.88.31-1.88.63-3.45.94-5.33,11.6-63.65,18.5-86.55,26.34-88.43H285C293.46,163.22,301.93,200.85,309.14,239.11Z" transform="translate(-45.26 -45.26)" style="fill:#eb7077"/><path d="M280.29,339.76H229.18c8.78,0,17.56-39.2,25.4-83.1,0,.63.31,1.25.31,1.88C262.42,299,271.51,339.76,280.29,339.76Z" transform="translate(-45.26 -45.26)" style="fill:#eb7077"/><path d="M254.89,257c-8.15,43.9-16.93,83.1-25.4,83.1-10-2.51-17.56-39.51-28.22-95.64-.31-1.88-.63-3.45-.94-5.33,7.84-40.76,16-75.88,24.14-75.88h2.82C237,165.42,244.55,201.79,254.89,257Z" transform="translate(-45.26 -45.26)" style="fill:#f6a2ad"/><path d="M176.19,163.22h48.29c-8.15,0-16.31,35.12-24.14,75.88C193.12,200.85,184.65,163.22,176.19,163.22Z" transform="translate(-45.26 -45.26)" style="fill:#eb7077"/><path d="M200.33,239.11c-.63,4.08-1.57,8.15-2.19,12.54-11.6,63.34-18.5,86.55-26.65,88.43-9.09,0-5.64-1.57-11.29-27s-10-40.45-16-48.29c.94-4.39,1.57-8.78,2.51-13.17,11.92-63.65,18.81-86.55,26.65-88.43h2.82C184.65,163.22,193.12,200.85,200.33,239.11Z" transform="translate(-45.26 -45.26)" style="fill:#eb7077"/><path d="M171.48,339.76H120.37c8.15,0,16.31-34.81,24.14-75.26,5.64,7.84,10,22.89,16,48.29C166.15,338.2,162.39,339.76,171.48,339.76Z" transform="translate(-45.26 -45.26)" style="fill:#eb7077"/><path d="M144.52,264.51c-7.84,40.45-16,75.26-24.14,75.26-.94-1.25-6.58,0-11.92-31.36-4.7-28.85-13.17-47-27-50.48H132.6C137.62,258.23,141.07,260.12,144.52,264.51Z" transform="translate(-45.26 -45.26)" style="fill:#f6a2ad"/></svg>